HIERARCHY
ROOT ding_shaowen:Solving:Hips
{
	OFFSET 0.000000 0.000000 0.000000
	CHANNELS 6 Xposition Yposition Zposition Xrotation Yrotation Zrotation
	JOINT ding_shaowen:Solving:Spine
	{
		OFFSET 0.000000 -12.793800 2.116599
		CHANNELS 6 Xposition Yposition Zposition Xrotation Yrotation Zrotation
		JOINT ding_shaowen:Solving:Spine1
		{
			OFFSET 0.000000 -8.721180 1.537782
			CHANNELS 6 Xposition Yposition Zposition Xrotation Yrotation Zrotation
			JOINT ding_shaowen:Solving:Spine2
			{
				OFFSET 0.000000 -8.822016 0.771827
				CHANNELS 6 Xposition Yposition Zposition Xrotation Yrotation Zrotation
				JOINT ding_shaowen:Solving:Spine3
				{
					OFFSET 0.000000 -8.855719 0.000000
					CHANNELS 6 Xposition Yposition Zposition Xrotation Yrotation Zrotation
					JOINT ding_shaowen:Solving:Neck
					{
						OFFSET 0.000000 -11.385921 -1.138590
						CHANNELS 6 Xposition Yposition Zposition Xrotation Yrotation Zrotation
						JOINT ding_shaowen:Solving:Neck1
						{
							OFFSET 0.000000 -6.705494 -0.586653
							CHANNELS 6 Xposition Yposition Zposition Xrotation Yrotation Zrotation
							JOINT ding_shaowen:Solving:Head
							{
								OFFSET 0.000000 -6.628845 -1.168845
								CHANNELS 6 Xposition Yposition Zposition Xrotation Yrotation Zrotation
								JOINT ding_shaowen:Solving:HeadEnd
								{
									OFFSET 0.000000 -9.728077 0.000002
									CHANNELS 6 Xposition Yposition Zposition Xrotation Yrotation Zrotation
									End Site
									{
										OFFSET 0.000000 -9.728081 0.000002
									}
								}
							}
						}
					}
					JOINT ding_shaowen:Solving:RightShoulder
					{
						OFFSET 0.000000 -8.132801 -5.345683
						CHANNELS 6 Xposition Yposition Zposition Xrotation Yrotation Zrotation
						JOINT ding_shaowen:Solving:RightArm
						{
							OFFSET -20.692947 -0.000008 0.000000
							CHANNELS 6 Xposition Yposition Zposition Xrotation Yrotation Zrotation
							JOINT ding_shaowen:Solving:RightForeArm
							{
								OFFSET -30.243591 -0.000008 0.000000
								CHANNELS 6 Xposition Yposition Zposition Xrotation Yrotation Zrotation
								JOINT ding_shaowen:Solving:RightHand
								{
									OFFSET -24.757149 -0.000008 0.000000
									CHANNELS 6 Xposition Yposition Zposition Xrotation Yrotation Zrotation
									JOINT ding_shaowen:Solving:RightHandThumb1
									{
										OFFSET -3.599983 2.820858 -2.676913
										CHANNELS 6 Xposition Yposition Zposition Xrotation Yrotation Zrotation
										End Site
										{
											OFFSET -5.243469 0.000000 -5.291954
										}
									}
									JOINT ding_shaowen:Solving:RightHandMiddle1
									{
										OFFSET -9.599960 -0.000004 0.061538
										CHANNELS 6 Xposition Yposition Zposition Xrotation Yrotation Zrotation
										End Site
										{
											OFFSET -7.449745 -0.000004 0.000000
										}
									}
								}
							}
						}
					}
					JOINT ding_shaowen:Solving:LeftShoulder
					{
						OFFSET 0.000000 -8.132801 -5.345683
						CHANNELS 6 Xposition Yposition Zposition Xrotation Yrotation Zrotation
						JOINT ding_shaowen:Solving:LeftArm
						{
							OFFSET 20.692947 -0.000008 0.000000
							CHANNELS 6 Xposition Yposition Zposition Xrotation Yrotation Zrotation
							JOINT ding_shaowen:Solving:LeftForeArm
							{
								OFFSET 30.243591 -0.000008 0.000000
								CHANNELS 6 Xposition Yposition Zposition Xrotation Yrotation Zrotation
								JOINT ding_shaowen:Solving:LeftHand
								{
									OFFSET 24.757149 -0.000008 0.000000
									CHANNELS 6 Xposition Yposition Zposition Xrotation Yrotation Zrotation
									JOINT ding_shaowen:Solving:LeftHandThumb1
									{
										OFFSET 3.599983 2.820858 -2.676913
										CHANNELS 6 Xposition Yposition Zposition Xrotation Yrotation Zrotation
										End Site
										{
											OFFSET 5.243469 0.000000 -5.291954
										}
									}
									JOINT ding_shaowen:Solving:LeftHandMiddle1
									{
										OFFSET 9.599960 -0.000004 0.061538
										CHANNELS 6 Xposition Yposition Zposition Xrotation Yrotation Zrotation
										End Site
										{
											OFFSET 7.449745 -0.000004 0.000000
										}
									}
								}
							}
						}
					}
				}
			}
		}
	}
	JOINT ding_shaowen:Solving:RightUpLeg
	{
		OFFSET -11.038935 0.000000 0.000000
		CHANNELS 6 Xposition Yposition Zposition Xrotation Yrotation Zrotation
		JOINT ding_shaowen:Solving:RightLeg
		{
			OFFSET 0.000000 45.093018 -0.000006
			CHANNELS 6 Xposition Yposition Zposition Xrotation Yrotation Zrotation
			JOINT ding_shaowen:Solving:RightFoot
			{
				OFFSET 0.000000 38.174210 -0.000006
				CHANNELS 6 Xposition Yposition Zposition Xrotation Yrotation Zrotation
				JOINT ding_shaowen:Solving:RightForeFoot
				{
					OFFSET 0.000000 3.459915 -0.000000
					CHANNELS 6 Xposition Yposition Zposition Xrotation Yrotation Zrotation
					JOINT ding_shaowen:Solving:RightToeBase
					{
						OFFSET 0.000000 0.000000 -13.550137
						CHANNELS 6 Xposition Yposition Zposition Xrotation Yrotation Zrotation
						JOINT ding_shaowen:Solving:RightToeBaseEnd
						{
							OFFSET 0.000000 0.000000 -3.436555
							CHANNELS 6 Xposition Yposition Zposition Xrotation Yrotation Zrotation
							End Site
							{
								OFFSET 0.000000 -3.436554 0.000000
							}
						}
					}
				}
			}
		}
	}
	JOINT ding_shaowen:Solving:LeftUpLeg
	{
		OFFSET 11.038935 0.000000 0.000000
		CHANNELS 6 Xposition Yposition Zposition Xrotation Yrotation Zrotation
		JOINT ding_shaowen:Solving:LeftLeg
		{
			OFFSET 0.000000 45.093018 -0.000006
			CHANNELS 6 Xposition Yposition Zposition Xrotation Yrotation Zrotation
			JOINT ding_shaowen:Solving:LeftFoot
			{
				OFFSET 0.000000 38.174210 -0.000006
				CHANNELS 6 Xposition Yposition Zposition Xrotation Yrotation Zrotation
				JOINT ding_shaowen:Solving:LeftForeFoot
				{
					OFFSET 0.000000 3.459915 -0.000000
					CHANNELS 6 Xposition Yposition Zposition Xrotation Yrotation Zrotation
					JOINT ding_shaowen:Solving:LeftToeBase
					{
						OFFSET 0.000000 0.000000 -13.550137
						CHANNELS 6 Xposition Yposition Zposition Xrotation Yrotation Zrotation
						JOINT ding_shaowen:Solving:LeftToeBaseEnd
						{
							OFFSET 0.000000 0.000000 -4.223781
							CHANNELS 6 Xposition Yposition Zposition Xrotation Yrotation Zrotation
							End Site
							{
								OFFSET 0.000000 -4.223778 0.000000
							}
						}
					}
				}
			}
		}
	}
}
MOTION
Frames: 5
Frame Time: 0.041667
-32.716408 -107.069923 -70.625626 110.558817 -8.462231 5.277165 -0.000005 -12.793790 2.116588 12.337804 -0.076906 -0.150621 -0.000001 -8.721190 1.537790 24.284599 0.124854 -0.930802 -0.000000 -8.822031 0.771811 1.266432 -1.475574 0.226667 -0.000002 -8.855714 -0.000012 -10.208993 -0.074427 1.807678 -0.000002 -11.385893 -1.138551 -2.939846 1.123115 0.903363 0.000003 -6.705495 -0.586663 -6.509493 5.348185 -4.485231 0.000004 -6.628854 -1.168818 -3.874205 0.881283 -1.383805 -0.000001 -9.728077 0.000005 -0.000006 -0.000000 0.000000 0.000003 -8.132786 -5.345667 0.000005 0.976697 -1.706363 -20.692953 -0.000012 -0.000006 -62.416113 -32.122660 -89.402737 -30.243593 -0.000008 -0.000001 13.595264 -0.021537 0.005209 -24.757164 0.000001 0.000003 -7.067619 11.843126 31.136824 -3.599983 2.820865 -2.676917 0.000001 0.000005 0.000001 -9.599945 0.000010 0.061532 0.000002 0.000001 -0.000000 0.000005 -8.132790 -5.345667 0.000000 -3.502236 -4.937560 20.692953 -0.000013 -0.000014 -69.611246 21.396626 95.094531 30.243570 -0.000010 0.000012 -5.222979 -1.703040 -0.155652 24.757164 -0.000003 -0.000003 0.260165 -3.541133 4.204708 3.600005 2.820848 -2.676901 -0.000002 0.000010 -0.000000 9.599961 0.000004 0.061539 -0.000003 0.000004 0.000001 -11.038938 0.000015 -0.000016 -72.190646 8.523869 31.160706 0.000009 45.093033 -0.000006 82.833502 -0.000005 -0.000004 -0.000016 38.174206 -0.000001 -9.832327 8.083601 -16.911159 0.000008 3.459923 0.000004 -0.000002 -0.000001 0.000001 -0.000027 0.000010 -13.550146 -19.838197 -0.000008 -0.000001 0.000000 0.000000 -3.436538 0.000000 -0.000001 -0.000000 11.038939 0.000005 0.000002 -76.398685 -0.212874 -21.061950 -0.000002 45.093021 -0.000012 75.456330 -0.000007 -0.000003 -0.000007 38.174198 -0.000001 -3.809806 -19.646286 14.182439 0.000019 3.459923 0.000008 0.000000 0.000007 -0.000000 0.000006 -0.000002 -13.550123 6.726937 0.000004 -0.000001 0.000005 -0.000007 -4.223766 0.000003 0.000005 -0.000001 
-32.637196 -107.113945 -70.672043 110.630555 -8.064211 5.697614 -0.000005 -12.793786 2.116601 12.358701 -0.089182 -0.148000 0.000000 -8.721183 1.537781 24.445932 0.106190 -0.981444 0.000000 -8.822021 0.771817 0.971834 -1.444361 0.461966 0.000002 -8.855734 0.000017 -10.214653 -0.061475 1.750543 0.000005 -11.385929 -1.138553 -2.812248 1.122069 0.848814 -0.000001 -6.705503 -0.586657 -6.408756 5.337329 -4.858497 0.000001 -6.628855 -1.168868 -3.859170 0.900082 -1.454284 -0.000001 -9.728085 -0.000015 -0.000001 0.000000 0.000000 0.000004 -8.132786 -5.345658 0.000005 1.017889 -1.797896 -20.692940 -0.000013 -0.000004 -62.462162 -32.030568 -89.554073 -30.243582 -0.000016 -0.000008 14.326535 0.051153 -0.013062 -24.757164 -0.000016 0.000003 -7.381654 12.068008 31.784743 -3.600008 2.820839 -2.676904 0.000000 0.000002 -0.000002 -9.599972 -0.000004 0.061548 0.000002 -0.000004 0.000004 0.000003 -8.132805 -5.345662 -0.000001 -3.589251 -5.059177 20.692947 -0.000002 -0.000010 -69.611444 21.602988 95.111880 30.243570 -0.000011 -0.000006 -5.398333 -1.755864 -0.165896 24.757139 0.000001 0.000009 0.259851 -3.610928 4.118851 3.599978 2.820851 -2.676904 -0.000003 0.000003 0.000004 9.599924 -0.000001 0.061548 -0.000003 -0.000001 0.000002 -11.038939 0.000011 0.000003 -72.374522 8.281556 31.182556 -0.000000 45.093029 -0.000017 83.090406 -0.000004 -0.000006 -0.000007 38.174198 0.000010 -8.395263 6.293977 -18.629466 0.000003 3.459924 -0.000001 0.000006 0.000001 -0.000003 -0.000010 0.000014 -13.550130 -19.161443 -0.000003 0.000000 0.000003 -0.000000 -3.436553 -0.000000 -0.000001 -0.000000 11.038933 -0.000001 0.000006 -76.559256 0.201838 -21.412616 0.000005 45.093018 -0.000016 75.649802 -0.000003 -0.000005 0.000012 38.174210 -0.000004 -3.834332 -19.798077 14.122717 0.000026 3.459915 0.000018 -0.000002 -0.000003 -0.000001 0.000029 -0.000006 -13.550117 6.290011 0.000002 -0.000001 0.000003 -0.000007 -4.223784 0.000003 0.000005 -0.000002 
-32.548458 -107.142708 -70.701393 110.639837 -7.717129 6.021711 -0.000003 -12.793808 2.116563 12.442315 -0.039021 -0.151620 0.000001 -8.721160 1.537791 24.583731 0.085510 -0.999644 0.000002 -8.822006 0.771854 0.636142 -1.419483 0.763607 -0.000000 -8.855742 -0.000009 -10.141155 -0.056666 1.645790 -0.000001 -11.385926 -1.138572 -2.736153 1.139615 0.914470 -0.000002 -6.705497 -0.586667 -6.281506 5.347994 -5.315091 0.000000 -6.628858 -1.168818 -3.834779 0.926081 -1.544658 0.000001 -9.728069 -0.000011 -0.000005 -0.000000 0.000000 0.000002 -8.132805 -5.345654 -0.000002 1.165140 -1.959221 -20.692957 -0.000000 0.000003 -62.560687 -32.074835 -89.726132 -30.243578 -0.000008 0.000003 15.010691 0.102662 -0.027528 -24.757158 -0.000008 -0.000003 -7.593110 12.355028 31.923939 -3.599995 2.820855 -2.676922 -0.000001 0.000002 -0.000005 -9.599943 0.000019 0.061535 -0.000005 0.000002 0.000003 0.000000 -8.132805 -5.345654 0.000001 -3.745553 -5.288854 20.692942 -0.000010 -0.000005 -69.695073 20.892902 95.244386 30.243578 -0.000004 0.000005 -6.127307 -2.006324 -0.215335 24.757160 -0.000004 0.000015 0.317344 -3.742533 4.850337 3.600003 2.820855 -2.676903 0.000000 0.000003 0.000006 9.599930 -0.000002 0.061545 -0.000002 0.000002 0.000000 -11.038946 -0.000012 -0.000048 -72.368142 8.007274 31.308204 -0.000001 45.093037 -0.000007 83.192039 -0.000001 -0.000003 0.000003 38.174206 -0.000014 -7.631450 4.523583 -20.642818 -0.000019 3.459923 0.000006 -0.000003 0.000002 -0.000001 -0.000004 0.000023 -13.550152 -18.399425 -0.000002 -0.000000 0.000008 -0.000008 -3.436559 0.000000 -0.000006 -0.000000 11.038935 -0.000004 -0.000022 -76.668047 0.496771 -21.720456 0.000002 45.093037 -0.000016 75.857181 0.000002 -0.000007 -0.000004 38.174210 -0.000030 -3.871844 -19.910558 13.977501 -0.000001 3.459915 -0.000009 0.000000 0.000005 0.000001 0.000003 -0.000006 -13.550151 6.208614 0.000004 -0.000002 -0.000013 0.000001 -4.223774 0.000003 0.000002 -0.000004 
-32.499825 -107.223145 -70.720543 110.926254 -7.541833 6.481412 0.000005 -12.793786 2.116573 12.215017 0.028061 -0.214375 0.000004 -8.721176 1.537763 24.594473 0.083084 -1.072391 -0.000004 -8.822042 0.771818 0.515767 -1.365151 0.798948 0.000003 -8.855711 -0.000025 -10.103585 -0.064708 1.712487 -0.000002 -11.385918 -1.138602 -2.628911 1.197865 0.878405 -0.000003 -6.705521 -0.586636 -6.178983 5.308308 -5.637017 0.000001 -6.628855 -1.168881 -3.820885 0.944594 -1.616478 -0.000000 -9.728092 -0.000023 -0.000004 0.000000 -0.000000 0.000003 -8.132824 -5.345684 0.000004 1.120516 -2.032854 -20.692942 -0.000010 -0.000014 -62.444035 -31.808205 -89.734445 -30.243603 -0.000022 -0.000010 14.235923 -0.038969 0.009887 -24.757153 -0.000017 -0.000012 -7.395861 12.005377 31.966436 -3.600000 2.820849 -2.676927 0.000003 0.000007 -0.000011 -9.599945 -0.000008 0.061522 0.000007 -0.000001 -0.000000 0.000004 -8.132832 -5.345681 0.000001 -3.652493 -5.492496 20.692953 0.000004 -0.000003 -69.689636 19.909233 95.054568 30.243582 -0.000008 0.000015 -4.711174 -2.238950 -0.184464 24.757154 -0.000005 0.000009 0.362020 -3.843855 5.384554 3.600009 2.820845 -2.676923 -0.000001 -0.000002 0.000003 9.599959 0.000000 0.061527 0.000001 0.000002 -0.000001 -11.038931 0.000010 -0.000034 -72.546226 8.142089 31.714204 0.000008 45.093040 -0.000002 83.064314 -0.000003 -0.000004 -0.000002 38.174206 0.000018 -7.789115 2.708144 -22.879194 -0.000021 3.459915 0.000017 0.000004 -0.000001 0.000002 -0.000029 -0.000008 -13.550139 -18.897718 -0.000007 0.000000 0.000017 -0.000008 -3.436562 0.000000 -0.000001 0.000001 11.038940 0.000007 -0.000002 -76.986587 1.116275 -21.721941 0.000009 45.093021 -0.000008 75.944040 -0.000007 -0.000004 -0.000001 38.174194 0.000001 -3.808445 -20.246889 14.138601 0.000004 3.459915 0.000003 -0.000001 0.000003 0.000001 -0.000010 -0.000006 -13.550139 6.266056 0.000003 -0.000001 -0.000014 -0.000008 -4.223775 -0.000001 0.000002 -0.000001 
-32.460686 -107.285324 -70.752342 111.093184 -7.344104 6.860092 -0.000008 -12.793803 2.116605 12.122536 0.034100 -0.236699 -0.000005 -8.721171 1.537776 24.683612 0.079134 -1.138077 -0.000002 -8.822020 0.771843 0.300780 -1.332147 0.838415 -0.000003 -8.855730 0.000000 -10.098010 -0.053260 1.780250 -0.000001 -11.385964 -1.138612 -2.578267 1.216047 0.748381 0.000002 -6.705499 -0.586650 -6.030277 5.332793 -5.807350 0.000000 -6.628862 -1.168808 -3.783303 0.958583 -1.663519 0.000001 -9.728085 -0.000007 0.000001 0.000000 0.000000 -0.000000 -8.132816 -5.345708 0.000008 1.190722 -2.106647 -20.692955 -0.000000 -0.000023 -62.408080 -31.487117 -89.808730 -30.243574 -0.000006 -0.000008 14.989692 -0.047346 0.012679 -24.757156 -0.000018 -0.000007 -7.561302 12.311229 31.904643 -3.600008 2.820852 -2.676918 0.000001 -0.000003 -0.000003 -9.599958 0.000001 0.061539 0.000006 -0.000001 -0.000007 0.000000 -8.132835 -5.345704 0.000010 -3.692130 -5.540951 20.692953 -0.000002 0.000011 -69.804192 21.631315 95.104879 30.243582 -0.000006 0.000012 -5.476264 -2.109242 -0.202166 24.757177 -0.000006 0.000008 0.339525 -3.946027 4.921788 3.599984 2.820857 -2.676907 -0.000001 0.000009 0.000002 9.599937 -0.000004 0.061541 0.000001 0.000004 -0.000000 -11.038942 0.000002 0.000019 -72.587972 8.008105 31.904056 0.000005 45.093048 0.000002 83.056822 -0.000001 -0.000006 -0.000016 38.174210 -0.000001 -8.190824 1.172980 -23.372491 -0.000000 3.459923 0.000017 0.000003 0.000001 -0.000002 -0.000006 0.000003 -13.550138 -19.832397 -0.000009 -0.000001 0.000016 -0.000000 -3.436550 0.000000 -0.000010 0.000002 11.038925 -0.000008 0.000009 -77.131455 1.615378 -21.765561 0.000002 45.093002 -0.000016 75.962509 0.000001 -0.000003 0.000005 38.174202 -0.000006 -3.880327 -20.642442 14.410574 0.000001 3.459923 0.000004 -0.000000 0.000006 -0.000001 -0.000004 -0.000009 -13.550137 6.476160 0.000010 0.000000 0.000006 -0.000000 -4.223773 -0.000001 0.000005 -0.000000 
